<svg xmlns="http://www.w3.org/2000/svg" width="84" height="64" viewBox="0 0 84 64">
  <path fill="#ffbf00" d="M77.76 19.09L40.86 2.78c-1.49-.66-3.21-.51-4.57.39L5.53 23.66c-2.08 1.38-2.73 4.14-1.48 6.3l16.88 29.27c.91 1.58 2.63 2.5 4.44 2.38l41.66-2.68c1.99-.12 3.7-1.47 4.25-3.38l9.11-30.78c.67-2.28-.45-4.72-2.63-5.68zm-8.23 6l-12.78 8.97c-1.06.74-1.4 2.14-.81 3.29l5.7 11.18c.24.47-.24.99-.72.78L45.24 42.8c-.8-.33-1.71-.24-2.43.23l-13.75 9.06c-.44.29-1-.11-.88-.6l3.11-13.15c.29-1.19-.3-2.39-1.4-2.92L15.74 28.6c-.53-.26-.38-1.04.2-1.08l17.32-1.55c1.04-.09 1.92-.8 2.23-1.78L40.11 10c.18-.48.83-.54 1.07-.09l6.79 12.77c.45.84 1.33 1.37 2.29 1.37H69.2c.56 0 .79.73.33 1.04z"/>
</svg>
