<svg xmlns="http://www.w3.org/2000/svg" width="24" height="24" fill="none" viewBox="0 0 24 24">
  <path fill="#000" fill-rule="evenodd" d="M18.9233 3H5.07675C3.93 3 3 3.93 3 5.07675V18.9218C3 20.07 3.93 21 5.07675 21H18.924C20.0708 21 21 20.07 21 18.9218V5.07675C21 3.93 20.0708 3 18.9233 3zM12 8.53875c1.9117 0 3.462 1.54875 3.462 3.46125 0 1.9117-1.5503 3.462-3.462 3.462-1.9117 0-3.46125-1.551-3.46125-3.462 0-1.9125 1.54955-3.46125 3.46125-3.46125zm6.75 9.51975c0 .3817-.3097.6915-.693.6915H5.943c-.38325 0-.693-.3098-.693-.6915V10.5h1.42275c-.066.2362-.11475.48-.15.7282-.0375.2528-.06075.5093-.06075.7718 0 3.0592 2.4795 5.5387 5.538 5.5387 3.0585 0 5.538-2.4795 5.538-5.5387 0-.2625-.0233-.519-.0608-.771-.0352-.2482-.0839-.492-.1499-.7282H18.75v7.5577zm0-10.485c0 .38175-.3097.69225-.693.69225h-1.6305c-.3832 0-.6922-.3105-.6922-.69225V5.94225c0-.3825.309-.69225.6922-.69225h1.6305c.3833 0 .693.30975.693.69225V7.5735z" clip-rule="evenodd"/>
</svg>
