<svg xmlns="http://www.w3.org/2000/svg" width="24" height="24" fill="none" viewBox="0 0 24 24">
  <path fill="#ffbf00" d="M10.6451 3.86l-.07-.07c-.57-.62-.81995-1.41-.66995-2.2l.09-.59h-1.89l-.06.43c-.2 1.36.27 2.71 1.3 3.72l.07.06c.57.62.81995 1.41.66995 2.2L9.97515 8h1.90995l.06-.43c.21-1.36-.27-2.71-1.3-3.71zm4 0l-.07-.07c-.57-.62-.82-1.41-.67-2.2l.09-.59h-1.89l-.06.43c-.2 1.36.27 2.71 1.3 3.72l.07.06c.57.62.82 1.41.67 2.2l-.11.59h1.91l.06-.43c.21-1.36-.27-2.71-1.3-3.71zM2 20h20v2H2zM12 19c5.5228 0 10-4.4772 10-10H2c0 5.5228 4.47715 10 10 10z"/>
</svg>
