<svg xmlns="http://www.w3.org/2000/svg" width="374" height="177" fill="none" viewBox="0 0 374 177">
  <path fill="#221f20" d="M244.282 78.39c-.83 0-1.61-.03-2.33-.08-30.233-2.06-45.149-14.21-44.339-36.109 1.01-27.269 18.575-42.548 48.298-41.888 16.996.38 45.859 9.04 46.159 39.078.1 10.09-3.449 18.6-10.548 25.29-10.837 10.229-27.583 13.709-37.24 13.709Zm.08-75.087c-13.847 0-42.47 4.24-43.75 39.008-.75 20.26 12.847 31.049 41.55 33.009 8.548.59 26.234-2.37 37.311-12.81 6.468-6.1 9.698-13.86 9.598-23.079-.13-12.91-5.749-22.669-16.706-29.018-10.808-6.26-23.035-7.01-26.524-7.08-.47-.03-.97-.03-1.479-.03Z"/>
  <path fill="#ffbf00" d="m275.664 28.191-31.693-16.009c-1.279-.65-2.779-.54-3.979.28l-27.113 19.69c-1.84 1.26-2.45 3.84-1.41 5.899l14.067 27.829c.75 1.5 2.229 2.4 3.799 2.32l37.211-2.75c1.729-.08 3.239-1.32 3.759-3.1l7.528-28.759c.63-2.14-.29-4.45-2.169-5.4Zm-6.879 5.05-11.677 9.06c-.88.66-1.17 1.92-.68 2.96l5.759 11.04c.2.42-.2.89-.6.7l-14.097-6.85a2.054 2.054 0 0 0-2.029.2l-12.477 8.14c-.37.26-.83-.09-.73-.54l3.599-11.81c.24-1.07-.25-2.15-1.169-2.62l-12.837-6.63c-.44-.23-.31-.93.16-.97l15.486-1.89c.87-.08 1.599-.72 1.869-1.6l3.859-11.75c.15-.43.69-.49.89-.08l5.669 11.48c.38.76 1.11 1.23 1.919 1.23l16.816-1c.46 0 .65.64.27.93Z"/>
  <path fill="#221f20" d="M306.856 48.37c1.63 0 2.949-1.32 2.949-2.94 0-1.62-1.319-2.94-2.949-2.94a2.946 2.946 0 0 0-2.949 2.94c0 1.62 1.329 2.94 2.949 2.94ZM181.977 47.461a2.947 2.947 0 0 0 2.949-2.94c0-1.62-1.32-2.94-2.949-2.94-1.63 0-2.95 1.32-2.95 2.94a2.94 2.94 0 0 0 2.95 2.94Z"/>
  <path fill="#ffbf00" d="M92.074 171.382c1.8 0 3.25-1.45 3.25-3.24a3.247 3.247 0 0 0-3.25-3.239 3.24 3.24 0 0 0-3.25 3.239c0 1.79 1.45 3.24 3.25 3.24Z"/>
  <path fill="#221f20" d="M373.11 152.176c-.72-.46-2.659-1.54-3.679-3.89s-4.659-4.959-5.989-6.139c-1.329-1.18-4.858-5.89-6.088-8.85-1.23-2.97-.97-7.11 0-10.849.97-3.74 3.069-11.16 3.329-15.92.26-4.76.15-6.65-.2-7.06-.36-.41-3.019 4.76-5.629 10.54-2.609 5.78-5.068 9.77-6.288 9.62-1.23-.15-10.917-17.75-10.747-23.03.1-3.07 3.329-4.96 5.368-10.239 2.04-5.28 5.419-15.46 4.909-19.549-.51-4.09-4.509-7.32-10.287-7.32-5.779 0-12.157 2.7-16.626 15.92-1.23 3.63-2.2 9.21-1.43 15.149.77 5.94 1.38 7.83.61 8.85-.77 1.019-15.916 15.969-19.286 20.879-3.379 4.909-8.847 11.719-10.797 16.789-1.949 5.07-3.839 10.179-3.839 14.379 0 4.2.36 8.8 2.349 11.87 2 3.07 3.28 2.61 2.97 7.729-.31 5.12 18.465 6.91 27.063 3.12 8.598-3.79 19.086-8.189 21.695-11.049 2.609-2.87 4.759-5.17 5.629-6.5.869-1.33 1.689-3.84 3.019-5.22s.77-3.48 1.689-3.74c.92-.26 4.759 1.94 8.748 5.27 3.989 3.33 7.568 4.45 12.587 3.12 1.59-.41 1.63-3.42.92-3.88ZM336.719 70.76c1.929-5.61 6.378-7.93 7.178-7.28.8.65-.75 6.33-1.2 8.23-.449 1.89-6.658 14.34-7.628 12.61-1.189-2.14-.31-7.88 1.65-13.56Zm5.968 69.697c-1.519 4.27-1.079 4.56-1.719 6.519-.64 1.96-5.199 9.81-16.026 14.61-10.828 4.8-22.005 7.649-24.264 3.28-2.26-4.36-1.47-8.73.439-13.68 1.91-4.95 7.839-16.469 9.508-18.729 1.67-2.26 5.949-9.939 8.578-14.619 2.05-3.65 3.949-5.34 6.159-5.39 2.399-.05 2.669 5.94 8.158 11.769 5.488 5.83 6.078 7.31 7.308 8.87 1.22 1.59 3.379 3.11 1.859 7.37ZM266.846 86.119c1.05.13-3.539 3.04-4.719 10.81-1.18 7.769-2.359 16.019-2.299 20.929.06 4.909.12 17.139-1.37 22.039-1.49 4.909-2.11 6.149-4.409 6.269-2.3.12-5.649-1.12-6.768-4.469-1.12-3.35-2.05-4.16-.99-4.91 1.06-.75.07-5.9-.46-8.76-.53-2.86-.16-14.159.46-20.549.62-6.4.62-13.35 5.648-16.58 5.029-3.22 7.639-5.639 14.907-4.779ZM191.217 169.125l3.2.77c-.21.72-.55 1.32-1.02 1.8-.46.48-1.04.84-1.72 1.09-.68.25-1.559.37-2.619.37-1.28 0-2.33-.15-3.149-.45-.81-.3-1.52-.82-2.11-1.58-.59-.76-.89-1.71-.89-2.89 0-1.56.52-2.77 1.56-3.61 1.04-.84 2.509-1.26 4.409-1.26 1.489 0 2.659.24 3.509.72.85.48 1.48 1.22 1.9 2.22l-3.22.57c-.11-.29-.23-.5-.35-.63-.2-.22-.449-.4-.749-.52-.29-.12-.63-.18-.99-.18-.83 0-1.46.27-1.9.8-.33.4-.5 1.02-.5 1.86 0 1.05.2 1.77.6 2.15.4.39.96.58 1.68.58.7 0 1.23-.16 1.579-.47.35-.31.62-.74.78-1.34ZM204.874 163.545h3.639v5.63c0 .56-.11 1.09-.33 1.58-.22.49-.56.93-1.02 1.3-.46.37-.95.63-1.459.78-.71.21-1.56.32-2.56.32-.58 0-1.199-.03-1.879-.1-.68-.07-1.25-.19-1.71-.38-.46-.19-.87-.46-1.25-.81-.38-.35-.639-.72-.779-1.09-.23-.6-.34-1.13-.34-1.6v-5.63h3.639v5.77c0 .52.18.92.54 1.21.36.29.849.43 1.489.43.63 0 1.12-.14 1.48-.43.36-.29.54-.69.54-1.21v-5.77ZM212.062 163.545h3.66v9.45h-3.66v-9.45ZM218.701 169.875l3.469-.17c.08.45.23.8.46 1.03.38.38.909.57 1.609.57.52 0 .92-.1 1.21-.29.29-.19.42-.42.42-.68 0-.25-.13-.46-.4-.66-.27-.19-.89-.38-1.87-.55-1.599-.29-2.739-.67-3.429-1.15-.69-.48-1.03-1.08-1.03-1.82 0-.49.18-.95.53-1.38.35-.43.88-.77 1.59-1.02.71-.25 1.67-.37 2.909-.37 1.51 0 2.66.22 3.449.67.79.45 1.26 1.16 1.42 2.14l-3.439.16c-.09-.42-.28-.73-.58-.93-.3-.2-.7-.29-1.21-.29-.42 0-.74.07-.959.22-.21.14-.32.32-.32.53 0 .15.09.29.27.41.17.12.579.24 1.229.35 1.6.28 2.74.55 3.429.83.69.28 1.19.63 1.51 1.05.31.42.47.88.47 1.4 0 .61-.21 1.17-.63 1.68-.42.51-1 .9-1.759 1.16-.75.26-1.7.4-2.85.4-2.009 0-3.399-.31-4.169-.93-.79-.62-1.229-1.41-1.329-2.36ZM232.387 163.545h3.66v9.45h-3.66v-9.45ZM239.676 163.545h3.409l4.449 5.23v-5.23h3.439v9.45h-3.439l-4.429-5.19v5.19h-3.429v-9.45ZM254.382 163.545h9.787v2.02h-6.128v1.5h5.679v1.93h-5.679v1.86h6.298v2.14h-9.957v-9.45ZM1.208 169.855l3.47-.17c.08.45.23.8.46 1.03.38.38.909.57 1.609.57.52 0 .92-.1 1.21-.29.29-.19.42-.42.42-.68 0-.25-.13-.46-.4-.66-.27-.19-.89-.38-1.87-.55-1.6-.29-2.74-.67-3.43-1.15-.69-.48-1.029-1.08-1.029-1.82 0-.49.18-.95.53-1.38.35-.43.88-.77 1.59-1.02.71-.25 1.68-.37 2.909-.37 1.51 0 2.66.22 3.449.67.79.45 1.26 1.16 1.41 2.14l-3.44.16c-.09-.42-.28-.73-.58-.93-.29-.19-.7-.29-1.21-.29-.419 0-.739.07-.959.22-.21.14-.32.32-.32.53 0 .15.09.29.27.41.17.12.58.24 1.23.35 1.6.28 2.74.55 3.429.83.69.28 1.19.63 1.51 1.05.31.42.47.88.47 1.4 0 .61-.21 1.17-.63 1.68-.42.51-1 .9-1.76 1.16-.76.26-1.7.4-2.85.4-2.009 0-3.398-.31-4.178-.93-.78-.62-1.21-1.41-1.31-2.36ZM22.443 163.525h3.639v5.63c0 .56-.11 1.09-.33 1.58-.22.5-.56.93-1.02 1.3-.46.37-.95.63-1.46.78-.71.21-1.56.32-2.559.32-.58 0-1.2-.03-1.88-.1-.68-.07-1.25-.19-1.699-.38-.46-.19-.87-.46-1.25-.81-.38-.35-.64-.72-.78-1.09-.23-.6-.34-1.13-.34-1.6v-5.63h3.64v5.77c0 .52.18.92.54 1.21.36.29.85.43 1.49.43.629 0 1.119-.14 1.479-.43.36-.29.54-.69.54-1.21v-5.77h-.01ZM28.861 169.855l3.47-.17c.08.45.23.8.46 1.03.38.38.91.57 1.609.57.52 0 .92-.1 1.21-.29.29-.19.42-.42.42-.68 0-.25-.13-.46-.4-.66-.27-.19-.89-.38-1.87-.55-1.6-.29-2.74-.67-3.429-1.15-.69-.48-1.03-1.08-1.03-1.82 0-.49.18-.95.53-1.38.35-.43.88-.77 1.59-1.02.71-.25 1.68-.37 2.909-.37 1.51 0 2.66.22 3.45.67.789.45 1.259 1.16 1.409 2.14l-3.44.16c-.09-.42-.28-.73-.58-.93-.29-.19-.699-.29-1.209-.29-.42 0-.74.07-.96.22-.21.14-.32.32-.32.53 0 .15.09.29.27.41.17.12.58.24 1.23.35 1.6.28 2.74.55 3.43.83.689.28 1.189.63 1.509 1.05.31.42.47.88.47 1.4 0 .61-.21 1.17-.63 1.68-.42.51-1 .9-1.76 1.16-.76.26-1.7.4-2.849.4-2.01 0-3.4-.31-4.179-.93-.78-.62-1.21-1.41-1.31-2.36ZM42.418 163.525h3.65v3.31h3.988v-3.31h3.67v9.45h-3.67v-3.82h-3.989v3.82h-3.649v-9.45ZM57.285 163.525h3.66v9.45h-3.66v-9.45ZM159.227 171.435h-4.149l-.58 1.56h-3.729l4.439-9.45h3.979l4.439 9.45h-3.82l-.579-1.56Zm-.76-2.04-1.3-3.4-1.29 3.4h2.59ZM166.343 163.545h3.659v9.45h-3.659v-9.45ZM136.744 163.525h3.649v3.31h3.989v-3.31h3.669v9.45h-3.669v-3.82h-3.989v3.82h-3.649v-9.45ZM123.011 163.541h10.226v2.623h-3.431v6.816h-3.364v-6.816h-3.431v-2.623Z"/>
  <path fill="#221f20" fill-rule="evenodd" d="M21.055 89.48c.26 0 .35.53.12.75-5.362 4.496-5.85 12.256-6.09 16.059-.02.323-.038.618-.058.879-.03.37.17.71.51.85 5.278 2.167 14.115 1.908 19.535 1.749 1.408-.041 2.585-.075 3.41-.059.74.08.94-.78.93-1.42-.016-.64-.037-1.321-.06-2.033-.266-8.586-.668-21.545 7.447-19.606 5.08 1.157 4.99 4.345 4.878 8.277-.065 2.29-.138 4.833.8 7.373 1.393 4.477 1.02 10.327.432 19.514-.1 1.565-.206 3.226-.311 4.994-.31 17.5-14.727 20.1-18.306 19.72-2.098-.209-1.855-.593-.713-2.392.224-.352.482-.758.763-1.228 1.71-2.87 4.98-12.38 4.66-18.609-.216-4.216-1.291-3.822-3.483-3.02-1.267.463-2.905 1.063-4.966.99-1.726.14-6.854.056-11.027-.012-2.353-.039-4.403-.073-5.369-.058-.35 0-.62.48-.59 1.02.19 19.579-.84 22.149-8.408 19.489-2.23-.79-3.739-2.11-3.479-9.26.022-.64-.104-1.126-.294-1.857C.967 129.982.24 127.188.11 118.958c-.082-5.447.098-7.232.364-9.87.122-1.217.263-2.616.405-4.64 1.85-13.769 16.266-15.069 20.175-14.969Zm25.954 33.908c-.111-.706-.125-1.75.189-1.96.438-.292 1.9-.438 1.9.439 0 .16.004.305.008.436.02.591.03.905-.447 1.025a9.946 9.946 0 0 0-.373.101c-.317.09-.583.165-.998.185a.268.268 0 0 1-.28-.226ZM172.769 108.648c1.869 1.81 7.078-.36 7.438-7 .36-6.64-2.549-10.29-6.708-14.16-4.159-3.869-11.817-5.759-20.065-5.109-8.248.66-17.656 3.79-23.125 12.04-5.469 8.249-5.469 15.099-1.819 22.259 3.649 7.149 11.967 10.289 14.886 11.159 2.919.88 13.057 1.39 16.856 1.53.513.019 1.081.047 1.682.086a.272.272 0 0 1-.012-.08l-.005-.217c-.016-.625-.027-1.074.299-1.299.5-.345 1.177-.703 1.461.293.293 1.022.229 1.142-.438 1.315a2.987 2.987 0 0 0-.22.065c3.674.29 7.989.92 8.39 1.957.51 1.31 0 5.98-7.588 8.61-7.105 2.462-13.499 1.015-15.664.525h-.001a35.438 35.438 0 0 1-1.521-.37l-.001-.001c-2.938-.763-9.578-2.487-11.696-.804-1.39 1.09-.15 4.449 2.04 5.979.231.162.524.383.874.647 2.961 2.232 10.038 7.565 19.041 6.653 10.067-1.02 16.996-3.5 22.834-9.41 5.839-5.909 8.538-11.239 6.639-16.049-1.9-4.82-5.909-8.759-13.717-9.339-1.46-.109-3.302-.177-5.362-.253-8.956-.33-22.024-.811-25.641-5.437-4.449-5.69 2.04-13.94 8.248-15.62 6.199-1.68 12.917-1.31 18.606 2.63 3.466 2.401 3.436 4.527 3.41 6.333-.017 1.158-.031 2.184.879 3.067Zm-10.865 12.342c-.365.251-.547 1.228-.577 2.053a.263.263 0 0 0 .231.275c.366.039.533-.052.74-.164.136-.074.289-.157.526-.219.667-.172.833-.345.833-1.381s-1.253-.91-1.753-.564ZM209.357 92.829c.788-1.006 1.158-1.478.563-1.72-1.81-.74-8.308.54-15.057 5.61-5.656 4.172-5.499 13.815-5.362 22.286.027 1.681.053 3.316.034 4.853-.07 5.344.572 6.547 1.04 7.423.344.644.594 1.112.399 2.916-2.019 2.62-1.479 3.85.16 5.68.3.334.531.832.782 1.376.412.889.88 1.9 1.798 2.514 1.579 1.05 4.358 1.05 6.608 1.05 2.794-2.252 2.878-8.216 2.949-13.202.051-3.651.095-6.777 1.19-7.537 1.276-.776 4.986-.444 8.822-.102 3.734.334 7.589.678 9.433.022 6.192-2.201 5.673.832 5.169 3.78-.09.523-.179 1.042-.23 1.529-1.114 11.35-4.089 15.505-5.423 17.368-.45.629-.713.996-.655 1.292 0 0 7.808.579 15.176-4.57 5.938-4.164 5.808-21.436 5.747-29.578-.015-1.947-.026-3.372.052-3.971.246-2.722-.097-4.471-.487-6.456-.338-1.728-.712-3.633-.763-6.513.21-5.87-.9-9.43-7.358-9.57-3.755 0-4.099 8.748-4.369 15.607-.106 2.675-.2 5.062-.48 6.532-.089 1.904-1.779 1.832-5.789 1.662-.939-.04-2.006-.085-3.209-.112-.544-.013-1.114-.025-1.701-.037-6.263-.134-14.492-.309-14.455-1.863.244-9.669 3.756-14.151 5.416-16.27Zm25.321 24.91c.031-.771.216-1.467.58-1.717.5-.346 1.461-.598 1.461.438l.002.306c.007.754.008.855-.587 1.009-.2.052-.337.107-.453.153-.229.091-.376.15-.773.091a.27.27 0 0 1-.23-.28ZM122.811 123.298c-.301-2.869-.547-4.712-.723-6.039-.369-2.771-.438-3.29-.087-6.191.52-4.29-2.839-11.82-5.618-15.12-2.78-3.3-5.559-4.979-5.559-4.979s1.33 2.55.58 2.2c-.142-.066-.529-.321-1.095-.694-2.427-1.597-8.153-5.366-12.052-5.796-5.658-.62-7.192 1.35-8.341 2.827-.463.596-.864 1.11-1.447 1.343-.629.25-1.466-.126-2.587-.63-1.66-.745-3.94-1.77-7.09-1.46-5.27.52-12.687 2.14-18.076 11.47-5.389 9.329-5.159 18.429-4.979 21.439.18 3.009.81 8.519 5.269 15.819 4.459 7.3 11.527 15.349 27.053 17.269 15.527 1.92 25.604-8.23 27.344-11.179.249-.427.6-.968 1.015-1.608 2.463-3.799 7.189-11.089 6.393-18.671Zm-14.177 3.849c-1.919 7.6-7.978 12.13-12.826 13.6-4.85 1.47-12.508 1.79-19.146-4.66-6.638-6.45-7.918-18.189-5.299-26.239 2.62-8.04 8.738-11.59 12.447-12.07 2.065-.264 3.091-.152 3.882-.065.553.06.99.109 1.587.006.805-.14 1.333-.99 1.785-1.72.362-.584.676-1.09 1.044-1.09 2.7 0 8.748 4.02 13.727 9.769 4.969 5.74 4.719 14.87 2.799 22.469Zm-43.61-14.486c-.307.205-.412 1.172-.433 1.9a.262.262 0 0 0 .287.275c.306-.038.531-.131.763-.227.169-.07.342-.142.553-.195.475-.118.467-.334.447-.881-.004-.126-.01-.27-.01-.434 0-.876-1.168-.73-1.606-.438Zm-2.193 25.878c-.006-.673-.013-1.417.294-1.622.439-.292 1.461-.358 1.461.518 0 .877 0 .943-.584 1.089-.223.056-.34.133-.44.199a.64.64 0 0 1-.492.129c-.139-.012-.237-.136-.239-.275v-.038Zm29.23 5.15c-.31.206-.303 1.036-.297 1.731v.025c.001.139.1.263.238.274.3.025.443-.05.618-.142.119-.063.253-.133.46-.185.585-.146.731-.292.731-1.169s-1.311-.826-1.75-.534Zm.73 7.747c.019-.683.122-1.451.435-1.66.439-.292 1.465-.298 1.465.579s-.146 1.023-.73 1.169a2.369 2.369 0 0 0-.39.131c-.157.066-.248.104-.547.062a.274.274 0 0 1-.233-.281Z" clip-rule="evenodd"/>
</svg>
